<!-- Generated by IcoMoon.io -->
<svg version="1.1" xmlns="http://www.w3.org/2000/svg" width="1755" height="1024" viewBox="0 0 1755 1024">
<title></title>
<g id="icomoon-ignore">
</g>
<path fill="#ffb3c7" d="M109.714 36.571h1565.257c40.396 0 73.143 32.747 73.143 73.143v804.571c0 40.396-32.747 73.143-73.143 73.143h-1565.257c-40.396 0-73.143-32.747-73.143-73.143v-804.571c0-40.396 32.747-73.143 73.143-73.143z"></path>
<path fill="#0a0b09" d="M1588.142 593.622c-10.807 0.040-21.154 4.377-28.759 12.054s-11.846 18.064-11.786 28.871c-0.059 10.807 4.181 21.194 11.786 28.871s17.953 12.014 28.759 12.054c22.364 0 40.546-18.333 40.546-40.925 0.059-10.807-4.181-21.194-11.786-28.871s-17.953-12.014-28.759-12.054v0zM1454.718 562.015c0-30.96-26.206-56.025-58.535-56.025s-58.535 25.103-58.535 56.025c0 30.922 26.244 55.986 58.573 55.986s58.497-25.065 58.497-55.986v0zM1454.946 453.123h64.582v217.746h-64.582v-13.921c-18.829 12.997-41.171 19.949-64.050 19.93-62.871 0-113.837-51.422-113.837-114.864s50.966-114.864 113.837-114.864c23.771 0 45.793 7.341 64.050 19.93v-13.959zM937.984 481.497v-28.336h-66.142v217.708h66.294v-101.666c0-34.307 36.817-52.716 62.376-52.716h0.761v-63.327c-26.244 0-50.319 11.334-63.289 28.336v0zM773.219 562.015c0-30.96-26.206-56.025-58.535-56.025s-58.535 25.103-58.535 56.025c0 30.922 26.244 55.986 58.573 55.986s58.497-25.065 58.497-55.986v0zM773.448 453.123h64.62v217.746h-64.62v-13.921c-18.256 12.551-40.278 19.93-64.050 19.93-62.871 0-113.837-51.422-113.837-114.864s50.966-114.864 113.837-114.864c23.771 0 45.793 7.341 64.050 19.93v-13.959zM1162.272 447.304c-25.787 0-50.205 8.063-66.56 30.351v-24.494h-64.316v217.708h65.115v-114.407c0-33.090 21.984-49.33 48.494-49.33 28.374 0 44.728 17.115 44.728 48.874v114.864h64.506v-138.445c0-50.662-39.936-85.121-91.967-85.121v0zM501.465 670.869h67.625v-314.734h-67.625v314.734zM204.417 670.945h71.619v-314.886h-71.581l-0.038 314.886zM454.911 356.059c0 68.157-26.32 131.599-73.254 178.723l98.965 136.163h-88.43l-107.523-147.953 27.765-20.995c45.833-34.471 72.659-88.59 72.341-145.938h70.135z"></path>
<path fill="#c8c8c8" d="M1627.429 0h-1499.429c-70.692 0-128 57.308-128 128v768c0 70.692 57.308 128 128 128h1499.429c70.692 0 128-57.308 128-128v-768c0-70.692-57.308-128-128-128zM128 36.571h1499.429c50.495 0 91.429 40.934 91.429 91.429v768c0 50.495-40.934 91.429-91.429 91.429h-1499.429c-50.495 0-91.429-40.934-91.429-91.429v-768c0-50.495 40.934-91.429 91.429-91.429z"></path>
</svg>
